<svg width="400" height="494" viewBox="0 0 400 494" fill="none" xmlns="http://www.w3.org/2000/svg">
<path d="M377.418 220.904C374.457 224.879 371.133 228.57 367.488 231.93L372.194 170.33L91.8842 104.578L80.3722 107.202L367.456 174.514L360.724 236.558C355.52 240.335 349.813 243.365 343.768 245.558C322.226 253.292 54.1842 183.738 53.9842 183.698V184.066C55.0142 251.292 31.7002 295.156 31.7002 295.156L324.822 366.49C346.558 362.586 363.822 338.628 363.822 338.628C372.822 306.3 377.306 228.59 377.718 221.078C377.718 221.043 377.709 221.008 377.692 220.978C377.674 220.947 377.649 220.922 377.619 220.904C377.588 220.887 377.554 220.877 377.518 220.877C377.483 220.877 377.449 220.887 377.418 220.904ZM116.766 287.078C113.879 290.352 110.294 292.937 106.274 294.64C102.255 296.344 97.9049 297.124 93.5442 296.922C79.0282 296.422 65.7442 285.452 61.5742 271.522C53.0142 242.968 81.5362 213.322 100.254 225.188L106.454 226.488C116.454 228.71 122.564 239.162 124.472 249.244C127.438 264.736 122.902 279.736 116.766 287.078ZM207.776 266.426C193.75 262.478 179.577 259.067 165.29 256.202C165.594 253.048 165.89 249.882 166.19 246.728C166.39 246.794 207.39 254.328 208.654 255.39C208.944 255.642 208.904 255.154 207.776 266.426ZM304 326.648C301.113 329.922 297.528 332.507 293.508 334.21C289.489 335.914 285.139 336.694 280.778 336.492C266.262 335.992 252.978 325.022 248.808 311.102C240.248 282.548 268.766 252.892 287.49 264.766L293.69 266.068C303.69 268.29 309.8 278.742 311.708 288.824C314.676 304.32 310.13 319.32 304 326.648Z" fill="#E5688B"/>
<path d="M328.558 214.915C326.358 214.715 314.02 212.527 315.758 210.579C316.4 209.855 317.654 209.809 318.576 209.667C325.36 208.692 332.271 210.111 338.122 213.679C336.186 215.597 331.27 215.161 328.558 214.915Z" fill="#E7275D"/>
<path d="M362.154 98.4529C361.178 170.709 318.29 192.489 307.666 196.781C298.158 170.449 278.906 92.7509 352.678 29.9049C352.678 29.9049 312.556 24.3309 264.078 56.1049C264.078 56.1049 264.632 29.3589 285.814 10.9609C285.814 10.9609 235.176 19.3609 195.574 58.8029L201.736 60.6629C201.948 60.7239 202.128 60.8659 202.236 61.0582C202.344 61.2506 202.371 61.4777 202.313 61.6904C202.255 61.903 202.115 62.0841 201.924 62.1943C201.733 62.3045 201.506 62.3349 201.292 62.2789C198.94 61.5729 196.582 60.8529 194.23 60.1469C193.698 60.6909 193.166 61.2529 192.63 61.8069C192.708 61.9584 192.736 62.1303 192.711 62.2985C192.686 62.4667 192.608 62.6228 192.49 62.7448C192.371 62.8668 192.217 62.9487 192.05 62.9788C191.883 63.009 191.71 62.9859 191.556 62.9129C169.096 87.0009 151.034 121.801 149.4 171.695C195.756 180.877 261.486 194.071 310.844 204.705C309.791 202.325 308.819 199.91 307.928 197.465C322.839 196.536 337.352 192.277 350.4 185.001C408.332 151.539 362.15 98.6529 362.154 98.4529ZM248.17 74.9589C248.11 75.172 247.968 75.3528 247.775 75.4624C247.583 75.572 247.355 75.6016 247.14 75.5449C244.818 74.6965 242.43 74.0403 240 73.5829C239.788 73.5218 239.607 73.3798 239.498 73.1873C239.388 72.9948 239.358 72.7671 239.414 72.5529C239.479 72.3424 239.622 72.1645 239.813 72.0555C240.005 71.9466 240.23 71.9149 240.444 71.9669C242.872 72.4257 245.258 73.0819 247.578 73.9289C247.791 73.9906 247.972 74.1324 248.082 74.3245C248.193 74.5166 248.224 74.744 248.17 74.9589ZM263.97 77.4089C256.366 74.7891 248.633 72.5602 240.8 70.7309C239.75 70.4929 240.2 68.8769 241.246 69.1169C249.083 70.9376 256.819 73.1687 264.422 75.8009C265.43 76.1529 265 77.7589 263.976 77.4009L263.97 77.4089Z" fill="#FDFDFD"/>
<path d="M92.7199 160.586L54.1199 183.742C60.4839 185.39 322.296 253.278 343.774 245.57C367.244 237.146 375.374 223.116 377.374 220.928C383.528 217.772 99.8139 162.004 92.7199 160.586ZM100.45 176.49C94.7719 178.582 88.1559 174.89 88.2759 173.964L88.9579 168.414C100.232 172.846 102.488 169.128 102.488 169.128C101.476 176.456 102 175.924 100.45 176.49ZM120.506 180.946C114.522 183.146 108.23 179.218 108.332 178.42L109.014 172.87C120.288 177.302 122.544 173.586 122.544 173.586C121.53 180.924 122.052 180.378 120.506 180.946ZM141.678 185.404C136.078 187.472 129.382 183.84 129.504 182.878L130.186 177.328C141.462 181.762 143.716 178.042 143.716 178.042C142.708 185.352 143.23 184.846 141.678 185.404ZM338.078 224.604C337.742 225.992 337.278 226.036 335.856 226.556C325.346 230.396 313.184 223.614 313.404 221.884L314.672 211.662C335.444 219.824 339.596 212.972 339.596 212.972C337.884 226.044 338.2 224.102 338.076 224.604H338.078ZM53.7139 183.992L53.9899 184.078V183.818L53.7139 183.992Z" fill="#FCAFB7"/>
<path d="M79.8744 107.312C79.5544 107.383 79.5464 107.347 79.8624 107.433L79.8744 107.312Z" fill="#E5688B"/>
<path d="M79.9061 107.094C79.0801 112.608 82.5061 88.0817 70.7061 174.244L79.9061 168.942L84.9061 118.238L358.218 180.652L352.69 243.346L360.604 237.654L367.456 174.514L79.9061 107.094Z" fill="#E7275D"/>
<path d="M131.812 175.854C126.59 176.768 133.774 179.784 140.378 179.628C140.981 179.693 141.59 179.605 142.149 179.372C142.709 179.139 143.2 178.768 143.578 178.294C140.102 176.032 135.902 175.161 131.812 175.854ZM119.2 175.172C119.804 175.239 120.416 175.152 120.977 174.918C121.538 174.685 122.031 174.314 122.41 173.838C118.93 171.579 114.727 170.712 110.636 171.41C105.362 172.336 112.704 175.326 119.2 175.172ZM99.1383 170.716C99.7407 170.782 100.35 170.694 100.909 170.461C101.469 170.228 101.96 169.858 102.338 169.384C98.8593 167.123 94.6562 166.256 90.5663 166.954C85.3183 167.876 92.6143 170.87 99.1383 170.716ZM38.6563 159.528C31.5663 163.728 28.4103 171.952 28.0423 179.866C27.9449 182.494 28.0539 185.126 28.3683 187.736C28.4863 188.788 30.1683 188.81 30.0383 187.736C29.2149 182.3 29.6334 176.748 31.2623 171.496C32.696 167.136 35.6114 163.415 39.5023 160.98C39.6948 160.868 39.8349 160.684 39.8918 160.469C39.9486 160.253 39.9175 160.024 39.8053 159.831C39.6931 159.639 39.509 159.499 39.2936 159.442C39.0781 159.385 38.8488 159.416 38.6563 159.528Z" fill="#E7275D"/>
<path d="M40.3261 146.556C32.7661 146.924 25.0661 155.11 21.1581 161.722C17.9837 167.051 16.0257 173.015 15.4241 179.188C14.8225 185.361 15.5922 191.591 17.6781 197.432C18.0581 198.432 19.6781 197.996 19.2941 196.988C16.7524 189.875 16.2438 182.194 17.8255 174.808C19.4071 167.422 23.0164 160.623 28.2481 155.174C31.4361 151.932 35.5881 148.452 40.3261 148.226C41.4001 148.17 41.4101 146.502 40.3261 146.556ZM374.904 339.96C377.497 337.234 379.234 333.806 379.898 330.103C380.563 326.399 380.126 322.582 378.642 319.124C378.21 318.138 376.768 318.994 377.202 319.97C378.507 323.105 378.873 326.552 378.255 329.892C377.637 333.231 376.062 336.319 373.722 338.78C372.974 339.548 374.154 340.73 374.904 339.96Z" fill="#E7275D"/>
<path d="M382.546 302.165C382.389 302.014 382.178 301.93 381.959 301.933C381.741 301.935 381.532 302.023 381.377 302.177C381.223 302.332 381.135 302.541 381.132 302.759C381.13 302.978 381.213 303.189 381.364 303.347C384.143 306.955 386.158 311.091 387.286 315.504C388.413 319.916 388.63 324.512 387.923 329.011C387.216 333.51 385.6 337.818 383.173 341.672C380.746 345.526 377.56 348.845 373.808 351.427C372.93 352.027 373.764 353.487 374.652 352.869C378.624 350.157 381.997 346.66 384.564 342.593C387.131 338.527 388.837 333.977 389.577 329.226C390.317 324.474 390.075 319.621 388.865 314.967C387.656 310.312 385.506 305.955 382.546 302.165ZM22.2324 281.937C22.8604 281.069 21.4184 280.223 20.7904 281.091C18.8395 283.989 18.0757 287.526 18.6566 290.972C19.2376 294.417 21.1189 297.508 23.9124 299.607C24.7904 300.237 25.6244 298.783 24.7584 298.165C22.3449 296.294 20.7386 293.57 20.2689 290.553C19.7992 287.535 20.5018 284.453 22.2324 281.937Z" fill="#E7275D"/>
<path d="M13.5582 279.723C14.0242 278.723 14.5882 277.403 15.7822 277.123C16.8322 276.885 16.3822 275.269 15.3362 275.507C13.0162 276.029 11.9982 278.879 11.3042 280.875C9.75679 285.44 9.58867 290.359 10.8208 295.019C12.053 299.679 14.6307 303.872 18.2322 307.075C19.0442 307.769 20.2322 306.587 19.4122 305.893C15.7989 302.708 13.2866 298.46 12.235 293.759C11.1835 289.058 11.6466 284.145 13.5582 279.723ZM290.288 251.699C266.384 243.327 246.474 257.639 239.464 281.111C232.246 305.405 240.972 333.689 267.152 341.511C277.778 344.675 289.268 346.649 299.904 342.485C317.174 335.721 326.724 315.633 326.464 297.831C326.162 276.997 309.312 258.361 290.288 251.699ZM304 326.643C301.113 329.918 297.528 332.502 293.508 334.206C289.489 335.909 285.139 336.689 280.778 336.487C266.264 335.987 252.978 325.017 248.808 311.097C240.248 282.543 268.766 252.887 287.49 264.761L293.69 266.063C303.69 268.285 309.8 278.735 311.708 288.819C314.676 304.315 310.13 319.315 304 326.643Z" fill="#E7275D"/>
<path d="M23.0879 262.782C25.5899 260.076 18.4539 249.656 16.3119 246.65C20.9785 243.509 25.6545 240.366 30.3399 237.22C32.7119 240.43 36.7659 246.11 37.6479 249.97C36.5824 249.543 35.3966 249.526 34.3193 249.922C33.242 250.318 32.3495 251.099 31.8139 252.114C31.4847 252.676 31.3218 253.32 31.3441 253.971C31.3663 254.622 31.5728 255.253 31.9395 255.792C32.3063 256.33 32.8182 256.753 33.4159 257.012C34.0135 257.271 34.6724 257.355 35.3159 257.254C42.4379 256.414 39.0779 247.386 35.2079 241.34C32.9907 237.883 30.5425 234.579 27.8799 231.452C27.7501 231.325 27.5822 231.243 27.4017 231.219C27.2212 231.196 27.038 231.232 26.8799 231.322C24.2919 232.922 11.3079 241.824 11.4199 242.64C10.6539 243.926 14.6639 244.464 20.5379 256.906C19.7623 256.768 18.9628 256.895 18.2683 257.267C17.5738 257.639 17.0248 258.234 16.7099 258.956C16.5027 259.482 16.4225 260.05 16.4756 260.613C16.5287 261.176 16.7137 261.719 17.0156 262.197C17.3175 262.675 17.7278 263.075 18.2133 263.365C18.6988 263.655 19.2457 263.827 19.8099 263.866C20.4028 263.948 21.0065 263.893 21.5747 263.705C22.1429 263.517 22.6606 263.201 23.0879 262.782ZM33.0719 254.1C32.8719 252.076 34.9959 250.484 37.8199 251.79C37.7579 256.294 33.3179 256.472 33.0719 254.1ZM29.3419 235.876L15.3419 245.296C14.7679 244.496 14.1819 243.696 13.5959 242.912C17.8919 239.363 22.4112 236.093 27.1259 233.122C27.8679 234.032 28.6279 234.944 29.3419 235.876ZM18.2739 261.124C18.0801 260.719 18.0359 260.259 18.149 259.824C18.2621 259.39 18.5252 259.009 18.8919 258.75C19.9819 257.992 21.8459 258.66 22.0459 260.876C22.1999 262.838 18.9439 262.372 18.2739 261.124ZM153.722 266.602C174.013 271.253 194.566 274.681 215.268 276.868C215.451 276.868 215.629 276.808 215.773 276.696C215.918 276.584 216.022 276.427 216.068 276.25C217.789 268.371 218.969 260.383 219.6 252.342C219.707 251.671 219.718 250.988 219.632 250.314C219.328 248.928 218.048 248.658 216.846 248.408C162.946 237.08 157.128 235.148 156.7 237.808L153.252 263.576C153.262 263.791 153.355 263.993 153.51 264.141C153.666 264.289 153.872 264.371 154.087 264.371C154.302 264.371 154.508 264.289 154.663 264.141C154.819 263.993 154.911 263.791 154.922 263.576L158.272 238.556C160.884 238.419 163.501 238.704 166.022 239.4C220.306 250.928 217.846 250 217.994 250.74C217.489 258.936 216.347 267.081 214.58 275.1C194.253 272.931 174.074 269.547 154.152 264.964C153.126 264.746 152.672 266.36 153.722 266.602ZM342.89 247.402C343.856 259.508 341.94 264.896 324.426 363.672C324.242 364.724 325.848 365.18 326.042 364.118C344.494 260.192 345.478 258.936 344.57 247.402C344.472 246.348 342.8 246.336 342.89 247.402ZM149.788 207.71C119 199.91 86.3519 193.654 59.7419 183.458C58.7419 183.07 58.2999 184.684 59.2959 185.074C86.5579 195.546 121.672 202.222 149.332 209.336C150.384 209.586 150.828 207.974 149.788 207.71Z" fill="#1D1D1B"/>
<path d="M339.658 247.758C340.722 247.89 340.722 246.21 339.658 246.09C315.386 243.232 291.558 238.946 267.706 234.068C255.824 231.638 157.746 210.834 156.228 210.552C155.176 210.352 154.72 211.974 155.782 212.168C167.762 214.39 229.72 227.65 230.814 227.898C229.252 240.778 224.276 285.064 223.302 294.332C202.557 289.724 181.901 284.611 161.334 278.992C144.02 274.248 144.054 274.048 143.652 274.048C146.504 255.884 148.84 235.072 150.156 214.108C150.222 213.034 148.556 213.034 148.486 214.108C146.569 244.721 142.531 275.163 136.4 305.216C136.184 306.268 137.8 306.712 138.016 305.662C140.044 295.71 141.84 285.714 143.404 275.674C169.765 283.276 196.357 290.055 223.14 296.002C222.064 306.404 221.008 316.808 219.974 327.214C219.866 328.288 221.546 328.276 221.644 327.214C222.902 314.258 231.586 235.368 232.454 228.256C265.762 235.544 304.308 243.744 339.658 247.758ZM227.832 213.87C228.009 213.914 228.196 213.901 228.365 213.833C228.535 213.765 228.678 213.645 228.776 213.49C231.257 208.853 234.843 204.899 239.216 201.978C240.082 201.402 239.314 200.026 238.436 200.502C238.236 200.39 181.192 187.42 167.35 184.112C166.31 183.862 165.854 185.466 166.906 185.726C162.135 187.852 157.469 190.185 152.906 192.726C152.528 192.94 152.156 195.42 153.058 195.726C177.338 204.177 202.379 210.254 227.832 213.87ZM153.702 194.172C154.868 193.588 160.776 190.15 169.584 186.356C177.866 188.34 231.822 200.698 236.646 201.756C232.952 204.564 229.878 208.105 227.616 212.156C202.459 208.542 177.708 202.519 153.702 194.172ZM106.694 225.698C105.642 225.458 105.198 227.074 106.25 227.312C124.94 231.564 129.43 263.098 119.25 281.898C117.578 284.987 115.314 287.716 112.588 289.93C109.861 292.143 106.725 293.797 103.358 294.798C78.89 302.236 52.282 276.554 63.558 246.598C68.484 233.498 81.658 220.798 95.052 223.93C96.746 224.327 98.3639 224.997 99.842 225.914C100.754 226.488 101.6 225.036 100.688 224.472C90.608 218.194 73.888 222.94 64.316 240.908C57.79 253.17 57.238 268.552 64.772 280.508C71.96 291.908 85.348 299.348 98.954 297.462C115.828 295.144 123.976 282.15 125.904 265.156C126.9 257.373 126.009 249.464 123.304 242.098C120.304 234.418 114.8 227.492 106.694 225.698Z" fill="#1D1D1B"/>
<path d="M304.6 327.233C313.232 316.919 316.34 296.491 310.542 281.669C307.542 273.967 302.036 267.059 293.932 265.269C292.88 265.029 292.436 266.645 293.488 266.883C311.926 271.083 316.826 302.379 306.488 321.469C299.768 333.905 284.72 338.595 271.45 333.839C265.454 331.639 260.159 327.868 256.12 322.921C252.08 317.973 249.444 312.032 248.488 305.717C244.668 279.117 270.27 255.045 287.088 265.485C288 266.059 288.846 264.607 287.934 264.043C281.268 259.891 272.812 260.975 266.264 264.759C248.524 275.011 240.23 301.379 252.018 320.071C265.02 340.715 291.92 342.385 304.6 327.233ZM252.28 212.177C252.48 212.229 288.124 221.305 288.88 221.349C290.48 221.447 291.494 220.167 292.524 219.159L296.416 215.359C297.186 214.611 296.004 213.429 295.234 214.179C294.16 215.219 290.984 218.319 290.464 218.829C289.172 220.091 289 219.719 286.832 219.185C286.116 219.001 256.032 211.401 252.714 210.569C252.501 210.511 252.273 210.541 252.082 210.651C251.89 210.761 251.75 210.943 251.693 211.156C251.635 211.369 251.665 211.596 251.775 211.788C251.885 211.979 252.067 212.119 252.28 212.177ZM290.386 211.885C290.462 212.057 290.587 212.203 290.744 212.307C290.901 212.41 291.085 212.467 291.273 212.469C291.461 212.471 291.646 212.419 291.806 212.32C291.965 212.22 292.093 212.077 292.174 211.907C292.706 210.707 291.134 210.357 290.33 210.139L260.258 202.139C260.048 202.092 259.828 202.128 259.644 202.239C259.459 202.35 259.325 202.527 259.268 202.735C259.211 202.942 259.236 203.163 259.337 203.353C259.439 203.542 259.61 203.686 259.814 203.753C272.846 207.245 289.078 211.529 290.386 211.885ZM217.642 329.945C193.471 325.454 169.568 319.627 146.042 312.491C145.012 312.175 144.566 313.793 145.596 314.107C169.117 321.245 193.014 327.075 217.18 331.571C218.25 331.743 218.704 330.141 217.642 329.945ZM225.134 91.4629C222.948 97.5729 227.574 103.651 232.134 103.355C235.204 103.169 238.246 100.287 237.956 94.5309C237.945 94.3165 237.853 94.1144 237.697 93.9664C237.542 93.8183 237.335 93.7358 237.121 93.7358C236.906 93.7358 236.7 93.8183 236.544 93.9664C236.389 94.1144 236.296 94.3165 236.286 94.5309C236.286 97.6789 235.602 101.001 232.502 101.631C228.902 102.351 224.886 97.1369 226.768 91.9069C227.106 90.8989 225.494 90.4549 225.134 91.4629ZM200.21 52.9109C200.242 53.9849 201.912 53.9849 201.88 52.9109C201.652 45.4209 195.84 40.1289 190.258 35.9549C189.39 35.3169 188.566 36.7549 189.412 37.3969C194.496 41.2029 200 46.0809 200.21 52.9109ZM198.962 55.4469C199.462 56.4029 200.962 55.6749 200.47 54.7209C196.99 48.0769 189.454 45.8529 182.614 44.5409C181.562 44.3409 181.444 46.0049 182.484 46.2109C188.696 47.4029 195.8 49.3889 198.962 55.4469ZM305.662 82.5189C307.815 81.3181 310.19 80.5695 312.642 80.3189C320.144 78.7629 328.1 77.7049 334.964 81.1529C335.918 81.6309 336.776 80.1889 335.81 79.7109C328.41 75.9829 320.2 77.0509 312.198 78.7109C309.602 78.9796 307.089 79.7802 304.816 81.0629C303.948 81.6949 304.782 83.1469 305.662 82.5189ZM304.122 88.3609C311.315 88.4456 318.364 90.3958 324.578 94.0209C324.769 94.1296 324.995 94.1586 325.207 94.1018C325.42 94.045 325.601 93.9068 325.712 93.7173C325.823 93.5277 325.856 93.302 325.802 93.0889C325.748 92.8759 325.612 92.6926 325.424 92.5789C318.95 88.8115 311.612 86.7832 304.122 86.6909C303.907 86.7014 303.705 86.7939 303.557 86.9494C303.409 87.1048 303.327 87.3113 303.327 87.5259C303.327 87.7405 303.409 87.947 303.557 88.1024C303.705 88.2578 303.907 88.3504 304.122 88.3609ZM300.23 93.9869C305.635 97.3816 310.125 102.052 313.304 107.587C313.418 107.775 313.601 107.911 313.814 107.965C314.027 108.019 314.253 107.986 314.442 107.875C314.632 107.764 314.77 107.583 314.827 107.37C314.884 107.158 314.855 106.932 314.746 106.741C311.408 100.965 306.711 96.0912 301.064 92.5409C300.164 91.9709 299.32 93.4209 300.23 93.9869ZM203.972 49.7889C203.852 50.8509 205.522 50.8509 205.642 49.7889C206.004 46.3949 205.659 42.9627 204.629 39.7086C203.599 36.4544 201.906 33.4488 199.658 30.8809C198.94 30.0689 197.77 31.2609 198.476 32.0629C200.565 34.4786 202.132 37.3005 203.078 40.3511C204.024 43.4016 204.328 46.615 203.972 49.7889ZM305.704 144.171C305.812 145.235 307.482 145.245 307.374 144.171C305.562 125.651 288.058 109.937 263.262 110.879C257.423 111.177 251.624 112.011 245.938 113.371C230.566 116.899 215.836 124.615 209.588 139.021C208.304 141.385 207.721 144.067 207.908 146.751C208.047 147.886 208.594 148.931 209.448 149.691C210.301 150.452 211.403 150.875 212.546 150.883C214.616 150.556 216.537 149.606 218.054 148.161C216.437 150.831 215.434 153.826 215.116 156.931C214.868 161.213 219.898 162.331 223.226 161.625C227 160.462 230.445 158.419 233.274 155.663C238.874 150.969 234.806 153.007 234.836 158.363C234.86 163.123 238.764 166.035 243.542 165.763C248.616 165.469 252.43 161.609 255.89 158.315L262.524 152.003C268.724 146.113 272.248 143.179 285.79 144.587C286.862 144.695 286.85 143.027 285.79 142.917C268.102 141.059 266.112 146.621 252.79 158.941C251.075 160.66 249.099 162.097 246.936 163.201C243.5 164.801 238.068 164.437 236.756 160.201C235.102 154.801 240.724 149.935 243.174 145.555C243.618 144.755 242.48 143.777 241.862 144.555C239.508 147.468 236.931 150.193 234.154 152.707C230.554 155.937 225.098 160.729 220.298 160.177C218.76 160.003 216.884 159.201 216.786 157.433C216.836 155.717 217.22 154.027 217.914 152.457C219.206 149.253 220.976 146.264 223.162 143.589C224.765 141.936 226.236 140.16 227.562 138.277C228.114 137.507 226.868 136.553 226.252 137.277C224.719 139.016 223.237 140.798 221.806 142.621C219.859 144.663 217.696 146.487 215.356 148.063C214.373 148.894 213.106 149.31 211.822 149.223C211.348 149.096 210.912 148.855 210.553 148.52C210.194 148.186 209.922 147.769 209.762 147.305C208.852 145.017 210.032 142.231 210.932 140.117C216.606 126.639 230.198 119.079 244.42 115.507C260.008 111.603 275.884 110.589 289.53 119.173C293.931 121.857 297.67 125.498 300.47 129.826C303.27 134.154 305.059 139.057 305.704 144.171ZM163.578 154.547C165.752 155.973 170.456 157.997 172.066 156.011C172.612 155.106 172.894 154.067 172.88 153.011C173.097 150.103 172.702 147.182 171.72 144.437C174.122 147.805 177.115 150.71 180.554 153.011C182.81 154.443 186.518 156.275 188.924 154.129C189.475 153.44 189.865 152.636 190.064 151.777C190.263 150.917 190.266 150.024 190.074 149.163C189.965 147.276 189.693 145.402 189.26 143.563C188.226 139.139 187.37 139.081 188.718 140.245C191.03 142.475 193.841 144.12 196.918 145.045C198.305 145.233 199.712 144.907 200.875 144.128C202.037 143.349 202.874 142.171 203.228 140.817C204.29 137.565 202.828 134.203 201.418 131.297C192.834 113.761 179.688 98.8593 163.36 88.1549C162.46 87.5549 161.616 89.0129 162.516 89.5969C177.187 99.2407 189.263 112.341 197.684 127.747C199.283 130.363 200.578 133.153 201.544 136.063C202.216 138.491 201.988 141.787 199.462 143.099C198.662 143.394 197.803 143.489 196.958 143.375C196.113 143.261 195.309 142.943 194.616 142.447C190.84 140.248 187.576 137.269 185.042 133.709C184.686 133.156 184.314 132.614 183.926 132.083C183.298 131.239 181.898 131.997 182.484 132.929C188.43 140.951 188.884 150.657 188.23 152.237C187.754 153.387 186.408 153.495 185.324 153.321C183.904 153.006 182.562 152.409 181.378 151.565C175.73 147.983 171.758 141.899 168.164 136.257C168.05 136.069 167.867 135.933 167.654 135.879C167.441 135.825 167.215 135.857 167.025 135.969C166.836 136.08 166.698 136.261 166.641 136.473C166.584 136.686 166.613 136.912 166.722 137.103C169.16 142.023 171.634 147.119 171.232 152.627C171.178 153.343 171.22 155.027 170.288 155.153C168.365 155.074 166.502 154.469 164.9 153.403C161.594 151.016 158.542 148.295 155.794 145.283C136.914 125.551 118.794 89.7869 145.506 85.9709C150.44 85.2704 155.469 86.2113 159.816 88.6489C160.007 88.7576 160.233 88.7866 160.445 88.7298C160.658 88.673 160.839 88.5348 160.95 88.3453C161.061 88.1557 161.094 87.93 161.04 87.7169C160.986 87.5039 160.85 87.3206 160.662 87.2069C156.941 85.0848 152.717 84.0044 148.434 84.079C144.151 84.1536 139.967 85.3805 136.322 87.6309C128.746 92.8889 129.774 103.643 132.246 111.351C137.316 127.173 154.042 148.303 163.578 154.547ZM374.286 223.473C367.67 232.891 357.486 239.095 347.4 244.745C346.456 245.265 347.302 246.717 348.244 246.187C358.696 240.333 368.862 234.143 375.726 224.319C376.356 223.431 374.902 222.603 374.286 223.473ZM319.862 207.841C317.988 208.021 315.408 208.145 314.204 209.841C310.854 214.537 329.13 216.641 329.338 216.641C332.754 216.891 338.054 217.367 340.092 213.865C340.2 213.673 340.228 213.447 340.171 213.234C340.114 213.022 339.977 212.84 339.788 212.727C333.873 208.93 326.862 207.211 319.862 207.841ZM328.558 214.921C326.358 214.721 314.02 212.533 315.758 210.585C316.4 209.861 317.654 209.815 318.576 209.673C325.359 208.697 332.271 210.116 338.122 213.685C336.186 215.603 331.27 215.167 328.558 214.921ZM138.2 180.425C140.25 180.565 143.078 180.749 144.304 178.723C144.412 178.531 144.44 178.305 144.383 178.092C144.326 177.88 144.189 177.698 144 177.585C141.063 175.69 137.626 174.721 134.132 174.803C132.766 174.835 130.732 174.835 129.754 175.941C127.336 178.685 134.672 180.167 138.2 180.425ZM133.148 176.521C136.284 176.226 139.436 176.9 142.178 178.451C140.646 178.853 139.047 178.931 137.484 178.679C135.278 178.453 133.119 177.889 131.084 177.009C131.721 176.681 132.431 176.513 133.148 176.521ZM117.026 175.957C119.074 176.099 121.904 176.283 123.13 174.255C123.238 174.063 123.266 173.837 123.209 173.624C123.152 173.412 123.015 173.23 122.826 173.117C119.888 171.226 116.452 170.26 112.96 170.341C111.594 170.375 109.56 170.375 108.58 171.481C106.168 174.215 113.48 175.697 117.026 175.957ZM111.962 172.065C115.102 171.772 118.256 172.448 121 174.003C119.468 174.405 117.869 174.483 116.306 174.231C114.1 174.005 111.941 173.441 109.906 172.561C110.538 172.225 111.246 172.054 111.962 172.065ZM96.9579 171.501C99.0079 171.643 101.838 171.827 103.062 169.799C103.17 169.607 103.198 169.381 103.141 169.168C103.084 168.956 102.947 168.774 102.758 168.661C99.8213 166.77 96.3853 165.804 92.8939 165.887C91.5279 165.919 89.4939 165.919 88.5139 167.025C86.0999 169.759 93.4099 171.241 96.9579 171.501ZM91.9059 167.603C95.0431 167.306 98.1959 167.98 100.938 169.533C99.4062 169.935 97.8073 170.013 96.2439 169.761C94.0377 169.535 91.8793 168.971 89.8439 168.091C90.479 167.757 91.1884 167.589 91.9059 167.603ZM103.452 255.391C98.0539 252.878 92.495 250.725 86.8119 248.949C86.7559 248.847 86.6802 248.758 86.5892 248.686C86.4982 248.614 86.3938 248.561 86.282 248.53C86.1703 248.499 86.0534 248.49 85.9384 248.505C85.8233 248.519 85.7123 248.557 85.6119 248.615C85.4645 248.616 85.3201 248.657 85.1935 248.732C85.0668 248.808 84.9624 248.915 84.8909 249.044C84.8193 249.173 84.7832 249.318 84.7862 249.466C84.7892 249.613 84.8311 249.757 84.9079 249.883C83.2626 254.799 81.123 259.536 78.5219 264.021C78.2092 263.284 77.6537 262.677 76.9477 262.3C76.2418 261.923 75.428 261.799 74.6418 261.949C73.7974 262.207 73.0682 262.75 72.5781 263.485C72.0879 264.219 71.8667 265.101 71.9522 265.98C72.0377 266.859 72.4244 267.681 73.0469 268.308C73.6694 268.934 74.4894 269.326 75.3678 269.417C76.7878 269.417 77.7099 268.183 78.4579 267.143C81.0625 263.332 83.1853 259.213 84.7779 254.881C89.9779 257.081 95.1672 259.281 100.346 261.481C99.0339 265.109 96.3639 271.777 93.6579 274.555C93.4432 273.524 92.8904 272.594 92.0872 271.912C91.284 271.231 90.2763 270.837 89.2239 270.793C88.5711 270.755 87.9205 270.898 87.3439 271.206C86.7672 271.514 86.2869 271.976 85.9559 272.54C85.6249 273.104 85.4561 273.748 85.4681 274.402C85.4801 275.056 85.6724 275.694 86.0239 276.245C86.8122 277.263 87.965 277.935 89.2392 278.119C90.5134 278.303 91.8094 277.986 92.8539 277.233C92.9725 277.278 93.1001 277.294 93.2263 277.28C93.3525 277.266 93.4735 277.223 93.5794 277.153C93.6853 277.083 93.773 276.989 93.8354 276.878C93.8977 276.768 93.9328 276.644 93.9379 276.517C96.4182 274.168 98.3095 271.268 99.4579 268.051C100.417 265.947 101.292 263.806 102.08 261.633C102.169 261.554 102.236 261.454 102.274 261.342C102.312 261.23 102.32 261.109 102.298 260.993C102.85 259.443 103.37 257.891 103.836 256.309C103.878 256.135 103.864 255.952 103.795 255.787C103.726 255.622 103.606 255.483 103.452 255.391ZM73.6939 264.529C73.9119 264.134 74.2646 263.83 74.6879 263.673C75.1111 263.516 75.5767 263.516 75.9999 263.673C76.4465 263.87 76.8015 264.229 76.9927 264.678C77.184 265.127 77.1973 265.632 77.0299 266.091C77.0035 266.182 76.9926 266.278 76.9979 266.373C76.7349 266.75 76.4296 267.095 76.0878 267.403C74.5498 268.745 73.0599 265.853 73.6939 264.529ZM87.2119 275.011C86.0859 272.493 91.2959 270.597 92.1999 275.761C89.8859 277.179 87.8699 276.479 87.2119 275.003V275.011ZM85.3799 253.353C85.7385 252.429 86.0859 251.507 86.4219 250.587C91.7413 252.245 96.9481 254.244 102.01 256.573C101.67 257.703 101.309 258.827 100.926 259.943C95.7432 257.743 90.5612 255.546 85.3799 253.353ZM50.5039 319.483C47.3839 318.057 33.4219 312.283 32.6599 312.707C32.0059 312.665 29.9199 321.205 25.5699 328.107C25.2572 327.37 24.7017 326.763 23.9957 326.386C23.2898 326.009 22.476 325.885 21.6899 326.035C20.8461 326.294 20.1178 326.837 19.6282 327.572C19.1387 328.306 18.9179 329.188 19.0033 330.066C19.0887 330.945 19.475 331.767 20.0968 332.394C20.7187 333.02 21.5379 333.413 22.4159 333.505C23.8359 333.505 24.7579 332.269 25.5059 331.229C28.1138 327.418 30.2399 323.3 31.8359 318.967C37.0359 321.167 42.2252 323.367 47.4039 325.567C46.0919 329.191 43.4239 335.861 40.7159 338.639C40.5011 337.608 39.9483 336.678 39.145 335.997C38.3418 335.316 37.3341 334.922 36.2819 334.879C35.6288 334.84 34.9778 334.983 34.4007 335.291C33.8237 335.599 33.343 336.061 33.0119 336.625C32.6807 337.189 32.512 337.834 32.5244 338.488C32.5367 339.142 32.7297 339.78 33.0819 340.331C36.4639 345.261 42.3039 341.295 46.5139 332.131C48.2438 328.324 49.7073 324.401 50.8939 320.391C50.9378 320.218 50.9234 320.035 50.8529 319.871C50.7824 319.707 50.6597 319.57 50.5039 319.483ZM20.7459 328.603C20.964 328.207 21.3174 327.902 21.7416 327.745C22.1657 327.588 22.6322 327.589 23.0559 327.747C24.2719 328.211 24.8139 330.019 23.1419 331.475C21.6139 332.827 20.1179 329.933 20.7459 328.603ZM34.2759 339.087C33.1519 336.565 38.3599 334.671 39.2619 339.835C36.9519 341.263 34.9299 340.563 34.2759 339.095V339.087ZM32.4319 317.425C32.7892 316.505 33.1365 315.584 33.4739 314.661C38.7933 316.319 44.0001 318.318 49.0619 320.647C48.7159 321.773 48.3699 322.901 47.9779 324.017C42.7925 321.834 37.6105 319.64 32.4319 317.433V317.425Z" fill="#1D1D1B"/>
<path d="M303.774 300.56C302.893 296.472 301.727 292.451 300.284 288.526C300.22 288.315 300.077 288.137 299.885 288.029C299.694 287.92 299.468 287.889 299.254 287.942C297.254 288.342 281.182 292.31 280.944 293.21C280.514 293.65 283.864 301.382 284.532 309.742C283.877 309.335 283.104 309.163 282.338 309.251C281.573 309.34 280.859 309.685 280.314 310.23C279.908 310.656 279.612 311.175 279.452 311.741C279.291 312.308 279.272 312.905 279.394 313.481C279.517 314.056 279.779 314.594 280.156 315.045C280.533 315.497 281.015 315.85 281.56 316.074C282.115 316.364 282.735 316.509 283.361 316.493C283.987 316.478 284.598 316.303 285.138 315.986C285.573 315.615 285.911 315.144 286.123 314.613C286.334 314.082 286.413 313.508 286.352 312.94C286.239 308.103 285.489 303.303 284.12 298.664L300.532 294.664C301.644 298.494 303.532 305.212 302.962 309.158C302.143 308.414 301.085 307.985 299.979 307.948C298.873 307.912 297.789 308.269 296.922 308.958C296.395 309.345 295.987 309.874 295.746 310.483C295.505 311.092 295.44 311.756 295.559 312.4C295.678 313.044 295.976 313.641 296.418 314.124C296.861 314.606 297.431 314.954 298.062 315.128C304.416 317.072 305.558 308.964 303.774 300.56ZM280.974 313.082C280.89 312.639 280.967 312.181 281.192 311.791C281.417 311.401 281.775 311.104 282.2 310.956C283.458 310.5 285.068 311.618 284.586 313.874C284.164 315.826 281.312 314.48 280.974 313.082ZM283.676 297.058L282.862 294.218C288.121 292.381 293.491 290.882 298.94 289.73C299.34 290.836 299.74 291.952 300.078 293.08C294.614 294.392 289.147 295.718 283.676 297.058ZM298.43 313.504C295.246 312.374 298.79 307.204 302.528 310.946C301.622 313.266 299.848 314.008 298.43 313.504ZM259.186 372.998C258.305 368.909 257.139 364.887 255.694 360.962C255.629 360.751 255.486 360.574 255.295 360.465C255.104 360.357 254.878 360.326 254.664 360.378C252.618 360.798 236.592 364.748 236.352 365.646C235.952 366.064 239.264 373.846 239.952 382.178C239.297 381.772 238.525 381.599 237.759 381.688C236.994 381.777 236.281 382.121 235.736 382.666C235.329 383.092 235.033 383.61 234.872 384.177C234.712 384.744 234.692 385.341 234.815 385.917C234.938 386.493 235.199 387.03 235.577 387.482C235.955 387.934 236.437 388.287 236.982 388.51C237.536 388.801 238.156 388.945 238.781 388.93C239.407 388.915 240.019 388.741 240.558 388.424C240.993 388.052 241.331 387.581 241.543 387.05C241.755 386.519 241.834 385.944 241.774 385.376C241.66 380.539 240.909 375.739 239.54 371.1L255.954 367.1C257.07 370.96 258.954 377.646 258.382 381.594C252.464 377.194 247.84 385.834 253.48 387.568C259.816 389.508 260.964 381.34 259.186 372.998ZM236.4 385.532C236.316 385.089 236.393 384.631 236.618 384.242C236.843 383.852 237.201 383.556 237.626 383.408C238.894 382.946 240.496 384.082 240.01 386.326C239.584 388.264 236.732 386.92 236.4 385.532ZM239.1 369.498L238.288 366.658C243.547 364.822 248.917 363.323 254.366 362.17C254.766 363.276 255.156 364.392 255.504 365.52C250.026 366.842 244.556 368.168 239.096 369.498H239.1ZM253.856 385.944C250.704 384.82 254.214 379.646 257.954 383.386C257.038 385.716 255.262 386.448 253.852 385.944H253.856ZM299.6 359.092C299 358.948 295.258 366.458 289.224 372.492C289.084 371.694 288.672 370.97 288.056 370.444C287.441 369.918 286.662 369.622 285.852 369.608C284.981 369.683 284.161 370.055 283.53 370.66C282.898 371.266 282.493 372.069 282.382 372.937C282.271 373.805 282.459 374.685 282.917 375.43C283.375 376.176 284.074 376.742 284.898 377.036C286.362 377.404 287.62 376.276 288.618 375.386C291.944 372.294 294.888 368.815 297.388 365.024C301.94 368.34 306.497 371.656 311.058 374.974C308.802 378.374 304.994 383.994 301.584 386.208C301.142 378.998 292.026 380.92 293.7 385.948C295.336 390.854 301.602 390.396 308.672 381.232C311.228 377.905 313.55 374.405 315.622 370.758C315.714 370.6 315.751 370.416 315.727 370.236C315.703 370.055 315.621 369.887 315.492 369.758C312.732 367.598 300.45 358.814 299.6 359.092ZM284.348 371.998C284.634 371.626 285.048 371.376 285.51 371.295C285.971 371.215 286.446 371.311 286.84 371.564C287.876 372.238 288.15 373.984 286.24 375.174C284.444 376.242 283.468 373.258 284.348 371.998ZM296.548 383.198C298.948 382.578 300.038 385.018 299.91 387.036C295.548 388.486 293.708 383.918 296.554 383.198H296.548ZM298.326 363.662C298.88 362.848 299.422 362.024 299.964 361.2C304.765 364.019 309.382 367.14 313.786 370.546C313.201 371.564 312.594 372.58 311.964 373.592C307.436 370.28 302.892 366.968 298.332 363.656L298.326 363.662ZM184.946 52.7656C184.946 52.7656 173.8 69.4816 182.712 79.5096C191.624 89.5376 222.834 90.6536 232.862 76.1696C233.865 82.3113 236.772 87.9827 241.173 92.3831C245.573 96.7835 251.244 99.6905 257.386 100.694C279.674 105.15 296.386 90.6656 300.848 83.4236C284.636 79.0856 195.576 55.5976 184.946 52.7656ZM192.62 62.5976C191.892 63.8456 190.81 61.8496 185.368 61.1236C185.156 61.0627 184.977 60.9207 184.869 60.7283C184.761 60.536 184.733 60.3089 184.792 60.0962C184.85 59.8835 184.99 59.7025 185.181 59.5923C185.372 59.4821 185.599 59.4517 185.812 59.5076C188.07 59.8285 190.266 60.4865 192.328 61.4596C192.517 61.5724 192.654 61.7553 192.709 61.9685C192.763 62.1816 192.732 62.4078 192.62 62.5976ZM201.288 62.2676C196.088 60.693 190.888 59.1296 185.688 57.5776C185.484 57.5104 185.313 57.3672 185.212 57.1776C185.11 56.9881 185.085 56.7667 185.142 56.5593C185.199 56.3519 185.334 56.1744 185.518 56.0635C185.702 55.9527 185.922 55.9169 186.132 55.9636C191.332 57.5236 196.532 59.0863 201.732 60.6516C202.762 60.9656 202.318 62.5796 201.288 62.2676ZM248.17 74.9556C248.109 75.1687 247.968 75.3495 247.775 75.4591C247.582 75.5687 247.354 75.5983 247.14 75.5416C244.818 74.6932 242.43 74.037 240 73.5796C239.787 73.5184 239.607 73.3764 239.497 73.184C239.388 72.9915 239.358 72.7638 239.414 72.5496C239.479 72.3391 239.621 72.1611 239.813 72.0522C240.004 71.9433 240.23 71.9116 240.444 71.9636C242.872 72.4224 245.258 73.0786 247.578 73.9256C247.791 73.9873 247.972 74.1291 248.082 74.3212C248.192 74.5133 248.224 74.7407 248.17 74.9556ZM263.97 77.4056C256.366 74.7858 248.632 72.5568 240.8 70.7276C239.75 70.4896 240.2 68.8736 241.246 69.1136C249.083 70.9343 256.819 73.1653 264.422 75.7976C265.43 76.1496 265 77.7556 263.976 77.3976L263.97 77.4056ZM172.4 251.916C171.916 253.123 171.916 254.47 172.4 255.678C172.43 255.799 172.488 255.911 172.569 256.006C172.65 256.1 172.751 256.175 172.866 256.223C172.981 256.272 173.106 256.292 173.23 256.284C173.354 256.276 173.475 256.239 173.582 256.176C174.079 256.532 174.66 256.75 175.269 256.809C175.877 256.867 176.49 256.763 177.045 256.508C177.6 256.252 178.077 255.854 178.428 255.354C178.78 254.854 178.992 254.27 179.044 253.662C179.101 252.849 178.872 252.043 178.398 251.381C177.923 250.72 177.233 250.244 176.445 250.037C175.658 249.83 174.823 249.905 174.084 250.248C173.346 250.591 172.75 251.181 172.4 251.916ZM177.366 253.466C177.354 253.72 177.289 253.968 177.176 254.196C177.062 254.423 176.903 254.624 176.707 254.786C176.511 254.949 176.283 255.068 176.039 255.137C175.794 255.206 175.538 255.224 175.286 255.188C175.034 255.152 174.793 255.064 174.577 254.93C174.361 254.796 174.176 254.618 174.033 254.408C173.89 254.197 173.792 253.96 173.746 253.71C173.7 253.46 173.707 253.203 173.766 252.956C173.87 252.511 174.136 252.121 174.512 251.863C174.889 251.605 175.349 251.497 175.801 251.561C176.253 251.625 176.664 251.856 176.955 252.209C177.245 252.561 177.39 253.01 177.366 253.466ZM195.136 259.398C195.408 259.89 195.788 260.316 196.246 260.642C196.705 260.969 197.231 261.188 197.785 261.284C198.34 261.38 198.909 261.35 199.451 261.197C199.992 261.043 200.492 260.77 200.914 260.398C201.554 259.893 201.978 259.164 202.098 258.358C202.219 257.553 202.028 256.731 201.564 256.062C201.22 255.596 200.779 255.21 200.273 254.93C199.767 254.649 199.206 254.479 198.629 254.433C198.052 254.387 197.472 254.465 196.927 254.661C196.383 254.858 195.887 255.169 195.472 255.574C195.349 255.537 195.219 255.53 195.092 255.554C194.965 255.577 194.846 255.629 194.744 255.707C194.641 255.785 194.559 255.886 194.502 256.002C194.446 256.118 194.418 256.245 194.42 256.374C194.402 256.554 194.395 256.735 194.398 256.916C194.061 257.475 193.809 258.082 193.65 258.716C193.609 258.902 193.632 259.098 193.717 259.269C193.802 259.441 193.943 259.578 194.117 259.658C194.291 259.737 194.487 259.755 194.673 259.708C194.858 259.66 195.022 259.551 195.136 259.398ZM197.954 256.122C197.969 256.121 197.984 256.118 197.998 256.112C199.746 255.894 201.278 257.602 200.058 258.912C198.586 260.512 196.472 259.44 196.112 257.35C196.547 256.72 197.206 256.281 197.954 256.122Z" fill="#1D1D1B"/>
<path d="M217.988 250.733C217.84 249.995 220.3 250.921 166.016 239.393C163.495 238.697 160.878 238.412 158.266 238.549C154.434 267.197 154.96 262.997 154.8 265.107C174.512 269.613 194.473 272.948 214.578 275.093C216.344 267.074 217.484 258.929 217.988 250.733ZM207.776 266.421C193.75 262.473 179.577 259.062 165.29 256.197C165.594 253.043 165.89 249.877 166.19 246.723C166.39 246.789 207.39 254.323 208.654 255.385C208.944 255.637 208.904 255.149 207.776 266.421Z" fill="#E7275D"/>
<path d="M163.556 256.841C163.557 257.023 163.618 257.2 163.73 257.345C163.842 257.489 163.998 257.593 164.174 257.641C179.49 260.697 194.834 264.441 208.286 268.267C208.41 268.298 208.539 268.301 208.664 268.275C208.789 268.25 208.907 268.197 209.009 268.121C209.111 268.044 209.195 267.945 209.254 267.832C209.313 267.719 209.346 267.594 209.35 267.467C209.55 265.407 210.486 256.119 210.486 255.835C210.498 253.895 208.708 253.601 207.192 253.255C193.319 250.041 179.365 247.186 165.344 244.691C165.162 244.652 164.973 244.674 164.805 244.753C164.637 244.832 164.499 244.964 164.413 245.129C164.327 245.293 164.298 245.482 164.329 245.665C164.36 245.848 164.45 246.016 164.586 246.143C164.238 249.697 163.902 253.275 163.556 256.841ZM208.654 255.389C208.942 255.641 208.904 255.153 207.776 266.425C193.75 262.476 179.577 259.066 165.29 256.201C165.594 253.047 165.89 249.881 166.19 246.727C166.4 246.801 207.384 254.323 208.654 255.389Z" fill="#1D1D1B"/>
<path d="M139.228 258.257C138.924 237.431 122.066 218.789 103.052 212.129C79.1682 203.761 59.2402 218.051 52.2282 241.541C45.0082 265.835 53.7362 294.119 79.9182 301.941C90.5422 305.105 102.032 307.079 112.668 302.915C129.938 296.147 139.488 276.059 139.228 258.257ZM125.904 265.141C123.976 282.141 115.828 295.129 98.9542 297.447C85.3542 299.333 71.9542 291.897 64.7722 280.493C57.2382 268.545 57.7902 253.163 64.3162 240.893C73.8982 222.925 90.6082 218.179 100.688 224.457C100.84 224.544 100.958 224.68 101.024 224.842C101.09 225.004 101.1 225.183 101.052 225.351L105.68 226.323C105.703 226.214 105.748 226.11 105.812 226.018C105.876 225.927 105.957 225.849 106.052 225.789C106.147 225.729 106.252 225.689 106.362 225.671C106.473 225.653 106.586 225.657 106.694 225.683C114.8 227.483 120.304 234.403 123.294 242.083C126.002 249.448 126.897 257.357 125.904 265.141Z" fill="#E7275D"/>
<path d="M58.6875 433.688C60.5625 434.021 62.1042 434.25 63.3125 434.375C64.5208 434.5 65.5 434.604 66.25 434.688C67.125 434.771 67.8125 434.792 68.3125 434.75H70.1875C70.8542 434.75 71.6875 434.75 72.6875 434.75C73.7292 434.708 75.0208 434.688 76.5625 434.688C77.4375 436.729 78.2292 438.604 78.9375 440.312C79.6875 442.021 80.3125 443.479 80.8125 444.688C81.3958 446.146 81.9375 447.458 82.4375 448.625C83.0208 450.083 83.6458 451.688 84.3125 453.438C84.9792 455.188 85.5833 456.833 86.125 458.375C86.7083 459.917 87.1875 461.188 87.5625 462.188C87.9375 463.188 88.125 463.646 88.125 463.562C88.125 463.521 88.1458 463.104 88.1875 462.312C88.2292 461.479 88.2708 460.458 88.3125 459.25C88.3542 458 88.3958 456.646 88.4375 455.188C88.5208 453.688 88.5625 452.25 88.5625 450.875C88.6042 449.458 88.625 448.167 88.625 447C88.625 445.833 88.5833 444.958 88.5 444.375C88.375 443.667 88.125 442.854 87.75 441.938C87.4167 441.146 86.9583 440.208 86.375 439.125C85.7917 438 84.9792 436.729 83.9375 435.312C85.6458 435.354 87.0417 435.375 88.125 435.375C89.2083 435.375 90.0833 435.375 90.75 435.375C91.5 435.375 92.0833 435.354 92.5 435.312C93.0417 435.312 93.7083 435.271 94.5 435.188C95.2083 435.104 96.0833 435.042 97.125 435C98.2083 434.917 99.5417 434.812 101.125 434.688C100.208 435.521 99.4792 436.312 98.9375 437.062C98.3958 437.812 97.9583 438.479 97.625 439.062C97.25 439.729 97 440.354 96.875 440.938C96.7083 441.688 96.5625 442.917 96.4375 444.625C96.3542 446.292 96.25 448.167 96.125 450.25C96.0417 452.333 95.9583 454.5 95.875 456.75C95.7917 459 95.7083 461.062 95.625 462.938C95.625 464.354 95.5833 465.875 95.5 467.5C95.4167 468.875 95.3333 470.438 95.25 472.188C95.1667 473.896 95.0625 475.625 94.9375 477.375L89.375 477.5C87.75 474.625 86.375 472.167 85.25 470.125C84.1667 468.042 83.2708 466.333 82.5625 465C81.7708 463.458 81.1042 462.167 80.5625 461.125C80.1042 460.125 79.5 458.979 78.75 457.688C78.125 456.604 77.3333 455.271 76.375 453.688C75.4583 452.104 74.3542 450.292 73.0625 448.25C72.9375 451.125 72.875 453.583 72.875 455.625C72.9167 457.625 72.9792 459.292 73.0625 460.625C73.1875 462.167 73.3333 463.458 73.5 464.5C73.7083 465.5 74 466.625 74.375 467.875C74.7083 468.958 75.1042 470.229 75.5625 471.688C76.0625 473.146 76.6667 474.792 77.375 476.625C74.9167 476.5 73.0833 476.438 71.875 476.438H70C69.4167 476.438 68.625 476.5 67.625 476.625C66.7917 476.708 65.6458 476.833 64.1875 477C62.7708 477.167 61 477.396 58.875 477.688C59.875 476.479 60.6667 475.375 61.25 474.375C61.875 473.333 62.3542 472.458 62.6875 471.75C63.1042 470.917 63.3958 470.188 63.5625 469.562C63.6875 468.896 63.7708 467.75 63.8125 466.125C63.8542 464.458 63.8542 462.583 63.8125 460.5C63.8125 458.375 63.7708 456.146 63.6875 453.812C63.6458 451.479 63.5833 449.312 63.5 447.312C63.4167 445.312 63.3125 443.604 63.1875 442.188C63.1042 440.771 63.0417 439.896 63 439.562C62.875 439.021 62.625 438.438 62.25 437.812C61.9167 437.271 61.4792 436.667 60.9375 436C60.3958 435.292 59.6458 434.521 58.6875 433.688ZM117.875 450C118.958 450 120.083 450.208 121.25 450.625C122.417 451 123.542 451.5 124.625 452.125C125.708 452.708 126.688 453.354 127.562 454.062C128.479 454.729 129.229 455.375 129.812 456C130.854 457.125 131.562 458.646 131.938 460.562C132.354 462.438 132.438 464.375 132.188 466.375C131.938 468.333 131.354 470.188 130.438 471.938C129.521 473.688 128.25 474.979 126.625 475.812C125.458 476.396 124.312 476.854 123.188 477.188C122.062 477.521 120.979 477.771 119.938 477.938C118.896 478.104 117.917 478.188 117 478.188C116.083 478.188 115.292 478.167 114.625 478.125C113.375 478.042 112.062 477.604 110.688 476.812C109.354 476.021 108.083 475.042 106.875 473.875C105.708 472.708 104.708 471.438 103.875 470.062C103.042 468.646 102.542 467.312 102.375 466.062C102.125 464.354 102.083 462.562 102.25 460.688C102.417 458.812 103.021 457.083 104.062 455.5C105.146 453.917 106.771 452.604 108.938 451.562C111.146 450.521 114.125 450 117.875 450ZM115.812 474.25C116.271 474.333 116.896 474.229 117.688 473.938C118.479 473.604 119.25 473.083 120 472.375C120.792 471.667 121.479 470.771 122.062 469.688C122.688 468.562 123.062 467.208 123.188 465.625C123.312 464.083 123.312 462.667 123.188 461.375C123.104 460.083 122.917 458.958 122.625 458C122.333 457 122 456.188 121.625 455.562C121.25 454.938 120.854 454.5 120.438 454.25C119.729 453.875 118.875 453.583 117.875 453.375C116.875 453.125 116.021 453.167 115.312 453.5C114.979 453.667 114.562 454.021 114.062 454.562C113.562 455.104 113.062 455.792 112.562 456.625C112.062 457.417 111.604 458.333 111.188 459.375C110.812 460.417 110.542 461.5 110.375 462.625C110.208 463.75 110.167 464.958 110.25 466.25C110.375 467.542 110.646 468.771 111.062 469.938C111.479 471.062 112.062 472.042 112.812 472.875C113.604 473.667 114.604 474.125 115.812 474.25ZM134.438 438.625C135.688 438.75 136.729 438.854 137.562 438.938C138.438 439.021 139.146 439.083 139.688 439.125C140.312 439.167 140.812 439.188 141.188 439.188C141.562 439.229 142.062 439.229 142.688 439.188C143.229 439.146 143.938 439.104 144.812 439.062C145.688 438.979 146.792 438.854 148.125 438.688C147.833 439.104 147.604 439.479 147.438 439.812C147.271 440.104 147.125 440.375 147 440.625L146.625 441.375C146.542 441.625 146.458 441.875 146.375 442.125C146.292 442.333 146.208 442.583 146.125 442.875C146.083 443.167 146.042 443.479 146 443.812H155.625L154.75 448.875L145.938 448.375C145.729 450.5 145.583 452.146 145.5 453.312C145.417 454.479 145.333 455.333 145.25 455.875L145.125 457C145 458.583 144.875 460.312 144.75 462.188C144.625 464.021 144.583 465.729 144.625 467.312C144.667 468.896 144.812 470.229 145.062 471.312C145.312 472.354 145.75 472.875 146.375 472.875C147 472.875 147.583 472.708 148.125 472.375C148.667 472.042 149.125 471.646 149.5 471.188C149.917 470.729 150.229 470.271 150.438 469.812C150.646 469.312 150.75 468.938 150.75 468.688C150.75 468.438 150.688 468.146 150.562 467.812C150.354 467.188 149.979 466.396 149.438 465.438C150.646 465.729 151.708 466.021 152.625 466.312C153.083 466.479 153.5 466.646 153.875 466.812C154.292 466.979 154.771 467.167 155.312 467.375C155.771 467.583 156.354 467.833 157.062 468.125C157.771 468.417 158.604 468.771 159.562 469.188C158.646 469.354 157.979 469.625 157.562 470C157.312 470.167 157.125 470.354 157 470.562C156.708 471.021 156.375 471.646 156 472.438C155.625 473.188 155.062 473.938 154.312 474.688C153.562 475.438 152.542 476.104 151.25 476.688C150 477.271 148.312 477.604 146.188 477.688C143.979 477.771 142.292 477.396 141.125 476.562C140 475.729 139.167 474.771 138.625 473.688C138.125 472.562 137.833 471.458 137.75 470.375C137.667 469.292 137.604 468.562 137.562 468.188C137.521 467.812 137.521 466.875 137.562 465.375C137.604 463.875 137.667 462.229 137.75 460.438C137.833 458.604 137.917 456.854 138 455.188C138.083 453.479 138.125 452.229 138.125 451.438C138.125 451.021 138.146 450.583 138.188 450.125C138.188 449.75 138.188 449.354 138.188 448.938C138.229 448.479 138.25 448.042 138.25 447.625L129.188 447.562L128.812 444L137.938 444.25C137.854 443.792 137.75 443.375 137.625 443C137.542 442.583 137.458 442.25 137.375 442C137.25 441.708 137.125 441.458 137 441.25C136.833 441.042 136.646 440.812 136.438 440.562C136.229 440.354 135.958 440.083 135.625 439.75C135.292 439.417 134.896 439.042 134.438 438.625ZM177.812 434.875C180.312 435.083 182.5 435.208 184.375 435.25C186.292 435.292 187.917 435.312 189.25 435.312C190.792 435.312 192.125 435.271 193.25 435.188C194.417 435.062 195.938 434.896 197.812 434.688C199.396 434.479 201.438 434.208 203.938 433.875C206.438 433.5 209.479 433.021 213.062 432.438C212.604 433.146 212.208 433.896 211.875 434.688C211.583 435.438 211.333 436.125 211.125 436.75C210.917 437.5 210.729 438.229 210.562 438.938C210.438 439.729 210.292 440.708 210.125 441.875C209.958 442.875 209.75 444.146 209.5 445.688C209.292 447.188 209.021 448.979 208.688 451.062C207.438 447.812 206.167 445.312 204.875 443.562C203.625 441.812 202.458 440.521 201.375 439.688C200.125 438.729 198.938 438.188 197.812 438.062C196.188 438.062 194.854 438.375 193.812 439C192.771 439.625 191.917 440.438 191.25 441.438C190.625 442.396 190.146 443.458 189.812 444.625C189.479 445.75 189.25 446.854 189.125 447.938C189 448.979 188.917 449.917 188.875 450.75C188.833 451.542 188.792 452.083 188.75 452.375C190.208 452.292 191.438 452.188 192.438 452.062C193.438 451.938 194.229 451.812 194.812 451.688C195.521 451.521 196.083 451.354 196.5 451.188C197.125 450.854 197.75 450.458 198.375 450C198.917 449.583 199.479 449.083 200.062 448.5C200.688 447.917 201.229 447.208 201.688 446.375C201.438 447.875 201.208 449.125 201 450.125C200.833 451.125 200.688 451.917 200.562 452.5C200.396 453.208 200.292 453.75 200.25 454.125C200.167 454.5 200.062 455.021 199.938 455.688C199.812 456.271 199.667 457.021 199.5 457.938C199.333 458.854 199.146 460 198.938 461.375C198.438 460.5 197.917 459.792 197.375 459.25C196.833 458.667 196.333 458.208 195.875 457.875C195.333 457.5 194.812 457.208 194.312 457C193.771 456.833 193.188 456.667 192.562 456.5C192.021 456.375 191.375 456.25 190.625 456.125C189.917 455.958 189.146 455.812 188.312 455.688C188.396 457.938 188.521 459.875 188.688 461.5C188.854 463.083 189 464.417 189.125 465.5C189.292 466.75 189.458 467.792 189.625 468.625C189.833 469.458 190.167 470.354 190.625 471.312C191 472.146 191.521 473.104 192.188 474.188C192.896 475.229 193.792 476.354 194.875 477.562C194.042 477.354 193.167 477.208 192.25 477.125C191.333 477.042 190.521 476.979 189.812 476.938C188.938 476.896 188.104 476.896 187.312 476.938C186.479 476.979 185.562 477.062 184.562 477.188C183.729 477.271 182.771 477.396 181.688 477.562C180.604 477.729 179.458 477.917 178.25 478.125C178.958 477.417 179.542 476.708 180 476C180.458 475.292 180.792 474.667 181 474.125C181.25 473.5 181.417 472.896 181.5 472.312C181.542 471.812 181.562 470.729 181.562 469.062C181.562 467.354 181.542 465.375 181.5 463.125C181.458 460.833 181.396 458.417 181.312 455.875C181.229 453.333 181.146 450.958 181.062 448.75C180.979 446.5 180.875 444.583 180.75 443C180.667 441.417 180.562 440.458 180.438 440.125C180.271 439.708 180.083 439.229 179.875 438.688C179.542 437.812 178.854 436.542 177.812 434.875ZM223.438 450C224.521 450 225.646 450.208 226.812 450.625C227.979 451 229.104 451.5 230.188 452.125C231.271 452.708 232.25 453.354 233.125 454.062C234.042 454.729 234.792 455.375 235.375 456C236.417 457.125 237.125 458.646 237.5 460.562C237.917 462.438 238 464.375 237.75 466.375C237.5 468.333 236.917 470.188 236 471.938C235.083 473.688 233.812 474.979 232.188 475.812C231.021 476.396 229.875 476.854 228.75 477.188C227.625 477.521 226.542 477.771 225.5 477.938C224.458 478.104 223.479 478.188 222.562 478.188C221.646 478.188 220.854 478.167 220.188 478.125C218.938 478.042 217.625 477.604 216.25 476.812C214.917 476.021 213.646 475.042 212.438 473.875C211.271 472.708 210.271 471.438 209.438 470.062C208.604 468.646 208.104 467.312 207.938 466.062C207.688 464.354 207.646 462.562 207.812 460.688C207.979 458.812 208.583 457.083 209.625 455.5C210.708 453.917 212.333 452.604 214.5 451.562C216.708 450.521 219.688 450 223.438 450ZM221.375 474.25C221.833 474.333 222.458 474.229 223.25 473.938C224.042 473.604 224.812 473.083 225.562 472.375C226.354 471.667 227.042 470.771 227.625 469.688C228.25 468.562 228.625 467.208 228.75 465.625C228.875 464.083 228.875 462.667 228.75 461.375C228.667 460.083 228.479 458.958 228.188 458C227.896 457 227.562 456.188 227.188 455.562C226.812 454.938 226.417 454.5 226 454.25C225.292 453.875 224.438 453.583 223.438 453.375C222.438 453.125 221.583 453.167 220.875 453.5C220.542 453.667 220.125 454.021 219.625 454.562C219.125 455.104 218.625 455.792 218.125 456.625C217.625 457.417 217.167 458.333 216.75 459.375C216.375 460.417 216.104 461.5 215.938 462.625C215.771 463.75 215.729 464.958 215.812 466.25C215.938 467.542 216.208 468.771 216.625 469.938C217.042 471.062 217.625 472.042 218.375 472.875C219.167 473.667 220.167 474.125 221.375 474.25ZM241.062 449.25C242.146 449.458 243.083 449.625 243.875 449.75C244.708 449.833 245.417 449.917 246 450C246.667 450.083 247.25 450.146 247.75 450.188C248.25 450.229 248.833 450.271 249.5 450.312C250.625 450.354 252.208 450.354 254.25 450.312C253.042 450.229 252.083 450.542 251.375 451.25C250.708 451.917 250.208 452.688 249.875 453.562C249.458 454.604 249.229 455.812 249.188 457.188C249.104 459.021 249.146 460.688 249.312 462.188C249.521 463.646 249.875 464.896 250.375 465.938C250.917 466.938 251.625 467.688 252.5 468.188C253.375 468.646 254.5 468.771 255.875 468.562C257.25 468.354 258.292 467.875 259 467.125C259.75 466.333 260.292 465.375 260.625 464.25C260.958 463.083 261.146 461.771 261.188 460.312C261.271 458.854 261.333 457.333 261.375 455.75C261.375 454.167 261.354 453.042 261.312 452.375C261.312 451.667 261.292 451.208 261.25 451C261.208 450.792 261.146 450.708 261.062 450.75C260.979 450.75 260.875 450.646 260.75 450.438C260.667 450.271 260.542 450.104 260.375 449.938C260.25 449.771 260.083 449.583 259.875 449.375C259.667 449.125 259.438 448.875 259.188 448.625C260.271 448.667 261.229 448.708 262.062 448.75C262.938 448.75 263.667 448.771 264.25 448.812C264.917 448.854 265.5 448.896 266 448.938C266.458 448.979 267.062 449.042 267.812 449.125C268.438 449.208 269.25 449.292 270.25 449.375C271.25 449.458 272.438 449.583 273.812 449.75C272.854 449.958 272.083 450.271 271.5 450.688C270.917 451.104 270.458 451.521 270.125 451.938C269.75 452.396 269.479 452.896 269.312 453.438C269.188 454.146 269.188 455.229 269.312 456.688C269.396 457.979 269.604 459.75 269.938 462C270.271 464.25 270.792 467.208 271.5 470.875L266.562 473.812L265.562 465.5C264.354 467.542 263.062 469.125 261.688 470.25C260.354 471.333 259.104 472.125 257.938 472.625C256.562 473.208 255.229 473.542 253.938 473.625C252.229 473.625 250.75 473.521 249.5 473.312C248.292 473.062 247.25 472.75 246.375 472.375C245.5 472 244.792 471.583 244.25 471.125C243.75 470.625 243.375 470.125 243.125 469.625C242.542 468.583 242.229 467.25 242.188 465.625C242.146 463.958 242.208 462.312 242.375 460.688C242.542 459.021 242.729 457.5 242.938 456.125C243.146 454.75 243.208 453.812 243.125 453.312C243.042 452.938 242.917 452.521 242.75 452.062C242.583 451.688 242.375 451.271 242.125 450.812C241.875 450.312 241.521 449.792 241.062 449.25ZM276.688 471.125C276.979 469.75 277.188 468.542 277.312 467.5C277.479 466.417 277.604 465.521 277.688 464.812C277.771 463.979 277.812 463.271 277.812 462.688C277.771 461.979 277.729 461.146 277.688 460.188C277.688 459.188 277.646 458.208 277.562 457.25C277.521 456.25 277.458 455.375 277.375 454.625C277.292 453.833 277.188 453.271 277.062 452.938C276.896 452.604 276.667 452.25 276.375 451.875C275.792 451.167 274.938 450.479 273.812 449.812C274.771 449.604 275.583 449.438 276.25 449.312C276.958 449.146 277.542 449 278 448.875C278.5 448.708 278.938 448.562 279.312 448.438C279.646 448.312 280.042 448.188 280.5 448.062C280.875 447.979 281.333 447.875 281.875 447.75C282.417 447.625 283.042 447.479 283.75 447.312L283.562 453C284.896 451.417 286.25 450.229 287.625 449.438C289 448.646 290.292 448.083 291.5 447.75C292.875 447.333 294.229 447.125 295.562 447.125C297.229 447.208 298.771 447.479 300.188 447.938C301.646 448.396 302.896 448.938 303.938 449.562C305.021 450.146 305.896 450.771 306.562 451.438C307.229 452.104 307.625 452.688 307.75 453.188C308.25 454.812 308.375 456.312 308.125 457.688C307.875 459.021 307.542 460.333 307.125 461.625C306.75 462.875 306.417 464.125 306.125 465.375C305.875 466.625 305.979 467.979 306.438 469.438C306.604 469.812 306.771 470.188 306.938 470.562C307.104 470.896 307.312 471.229 307.562 471.562C307.812 471.896 308.104 472.167 308.438 472.375C307.979 472.333 307.521 472.312 307.062 472.312C306.604 472.271 306.188 472.229 305.812 472.188C305.354 472.146 304.938 472.104 304.562 472.062C304.146 472.021 303.583 472 302.875 472C301.667 472 299.792 472.062 297.25 472.188C297.625 471.312 297.917 470.583 298.125 470C298.375 469.375 298.583 468.875 298.75 468.5C298.917 468.042 299.042 467.688 299.125 467.438C299.625 466.229 299.917 464.854 300 463.312C300.125 461.771 300.021 460.208 299.688 458.625C299.562 458.083 299.354 457.438 299.062 456.688C298.771 455.938 298.375 455.208 297.875 454.5C297.417 453.792 296.854 453.188 296.188 452.688C295.562 452.188 294.833 451.896 294 451.812C293.167 451.729 292.229 451.938 291.188 452.438C290.188 452.938 289.104 453.854 287.938 455.188C287.062 456.312 286.375 457.688 285.875 459.312C285.417 460.688 285.104 462.417 284.938 464.5C284.771 466.542 285.021 468.938 285.688 471.688C285.104 471.604 284.562 471.562 284.062 471.562C283.562 471.521 283.146 471.479 282.812 471.438C282.396 471.396 282.021 471.354 281.688 471.312C281.312 471.312 280.896 471.292 280.438 471.25C280.021 471.25 279.5 471.25 278.875 471.25C278.25 471.208 277.521 471.167 276.688 471.125ZM342.312 430.125C343.104 430.167 343.958 430.188 344.875 430.188C345.667 430.188 346.562 430.208 347.562 430.25C348.604 430.25 349.688 430.208 350.812 430.125C349.812 430.583 348.938 431.25 348.188 432.125C347.438 433 346.833 433.875 346.375 434.75C345.792 435.792 345.312 436.875 344.938 438C344.729 438.667 344.562 439.854 344.438 441.562C344.312 443.229 344.208 445.188 344.125 447.438C344.083 449.688 344.062 452.062 344.062 454.562C344.062 457.062 344.083 459.458 344.125 461.75C344.167 464 344.229 466 344.312 467.75C344.396 469.5 344.5 470.729 344.625 471.438C344.792 472.271 345 473.062 345.25 473.812C345.458 474.479 345.729 475.167 346.062 475.875C346.396 476.542 346.812 477.083 347.312 477.5L340.938 480.375C340.604 479.917 340.333 479.438 340.125 478.938C339.917 478.479 339.75 478.062 339.625 477.688C339.458 477.229 339.354 476.812 339.312 476.438C339.229 475.938 339.146 475.396 339.062 474.812C338.979 474.188 338.875 473.604 338.75 473.062C338.667 472.479 338.604 472 338.562 471.625C338.521 471.25 338.521 471.021 338.562 470.938C338.604 470.854 338.354 471.229 337.812 472.062C337.271 472.854 336.458 473.792 335.375 474.875C334.333 475.917 333.042 476.938 331.5 477.938C329.958 478.896 328.229 479.5 326.312 479.75C324.354 480 322.542 479.625 320.875 478.625C319.25 477.625 317.854 476.229 316.688 474.438C315.521 472.604 314.625 470.5 314 468.125C313.417 465.708 313.188 463.25 313.312 460.75C313.396 459.083 313.771 457.604 314.438 456.312C315.104 454.979 315.938 453.833 316.938 452.875C317.979 451.875 319.104 451.042 320.312 450.375C321.562 449.667 322.771 449.083 323.938 448.625C325.146 448.167 326.271 447.833 327.312 447.625C328.354 447.417 329.188 447.271 329.812 447.188C330.562 447.146 331.417 447.271 332.375 447.562C333.208 447.812 334.167 448.229 335.25 448.812C336.375 449.396 337.625 450.271 339 451.438C338.75 447.271 338.521 443.938 338.312 441.438C338.104 438.896 337.896 436.958 337.688 435.625C337.479 434.042 337.292 432.958 337.125 432.375C336.917 431.958 336.646 431.542 336.312 431.125C336.021 430.792 335.646 430.458 335.188 430.125C334.771 429.75 334.271 429.458 333.688 429.25C334.771 429.458 335.812 429.604 336.812 429.688C337.812 429.771 338.729 429.854 339.562 429.938C340.521 430.021 341.438 430.083 342.312 430.125ZM326.625 453.438C325.833 453.729 325.188 454.229 324.688 454.938C324.229 455.646 323.854 456.5 323.562 457.5C323.271 458.458 323.062 459.5 322.938 460.625C322.854 461.708 322.792 462.771 322.75 463.812C322.75 464.812 322.75 465.729 322.75 466.562C322.75 467.396 322.75 468.021 322.75 468.438C322.75 468.688 322.792 469.146 322.875 469.812C323 470.438 323.25 471.104 323.625 471.812C324 472.479 324.521 473.083 325.188 473.625C325.896 474.167 326.833 474.438 328 474.438C328.958 474.354 329.979 474.021 331.062 473.438C332.021 472.938 333.104 472.146 334.312 471.062C335.562 469.938 336.896 468.333 338.312 466.25C338.229 464.917 338.167 463.812 338.125 462.938C338.125 462.062 338.104 461.354 338.062 460.812C338.021 460.188 338 459.688 338 459.312V458.375C338 458.125 338 457.854 338 457.562C338 457.271 338.021 457 338.062 456.75C336.896 455.917 335.854 455.208 334.938 454.625C334.062 454 333.188 453.542 332.312 453.25C331.479 452.917 330.604 452.771 329.688 452.812C328.812 452.812 327.792 453.021 326.625 453.438Z" fill="white"/>
</svg>
