<svg width="300" height="65" viewBox="0 0 300 65" fill="none" xmlns="http://www.w3.org/2000/svg">
<path fill-rule="evenodd" clip-rule="evenodd" d="M86.9161 62.4696C39.2809 65.3348 38.983 65.1292 37.4806 63.5705C36.6701 62.7297 29.6951 61.9036 21.9805 61.7347C12.7405 61.5324 7.14753 60.7595 5.59093 59.4697C4.29132 58.3929 2.62321 57.5382 1.88407 57.5704C1.14492 57.6026 0.485184 56.3654 0.417946 54.8211C0.3205 52.583 1.23192 51.9725 4.90988 51.8124C7.44764 51.7019 9.49649 50.9797 9.46287 50.2076C9.42925 49.4354 8.17518 48.8571 6.67604 48.9224C2.73582 49.0939 1.47706 46.3672 5.32756 46.0014C7.10701 45.8323 9.04009 45.7482 9.62334 45.8143C10.2066 45.8805 10.6563 45.303 10.6227 44.5308C10.5891 43.7587 8.98173 43.1957 7.05081 43.2798C5.11989 43.3638 3.51252 42.8009 3.47891 42.0287C3.44529 41.2565 4.08441 40.5958 4.89913 40.5603C5.68099 40.5263 9.00444 39.1327 12.4125 37.4188C10.6495 37.2243 9.58037 36.9137 9.56343 36.5247C9.52981 35.7525 11.8717 35.0089 14.7676 34.8723C16.354 34.7975 18.2506 34.5771 19.9551 34.2907C21.8884 33.6642 24.0149 33.0853 26.4006 32.5441L26.9691 32.3584L22.7153 31.6011C20.2815 31.1678 22.2862 30.6714 28.4148 30.1729C29.8735 29.9767 30.4405 29.1936 29.9391 28.04C29.8513 27.8379 29.8023 27.6384 29.7906 27.4437C21.9052 27.9753 14.2451 28.6872 10.6589 29.37C3.14178 30.8013 0.976644 30.6945 2.55719 28.9706C3.90792 27.4973 13.7781 24.8703 18.0915 24.8362C20.3526 24.8182 22.6325 24.0355 23.1579 23.0967C23.6832 22.1579 26.2111 21.3581 28.7752 21.3194C29.4075 21.3098 30.0496 21.267 30.6698 21.1978C29.7157 20.3173 30.4311 19.9057 33.16 18.5163C33.6838 18.2496 34.1811 17.9402 34.6313 17.6097C32.1479 17.6925 28.8001 17.8751 24.9435 18.1503C2.92154 19.7219 10.0915 17.3414 34.3104 15.0405C35.1571 14.96 36.004 14.8781 36.8466 14.7951C36.8492 14.7561 36.8497 14.7179 36.8481 14.6805C36.8022 13.6269 38.7713 12.272 41.2238 11.6696C45.0356 10.7333 45.2779 10.436 42.8933 9.62109C41.359 9.09679 59.38 7.87912 82.9399 6.91516C106.5 5.95118 122.952 5.7283 119.499 6.41983C114.137 7.494 113.839 7.71378 117.455 7.92847C118.82 8.00953 127.541 7.80933 139.897 7.43448C152.238 6.73401 160.943 6.17549 162.296 5.9761C165.879 5.448 165.563 5.25494 160.128 4.65089C156.629 4.26201 173.038 3.05416 196.592 1.96681C220.147 0.879444 238.206 0.526236 236.723 1.1819C234.418 2.20098 234.685 2.47614 238.564 3.07757C241.059 3.46452 243.139 4.64314 243.185 5.69673C243.186 5.73411 243.19 5.77214 243.196 5.81078C244.043 5.8202 244.894 5.82825 245.744 5.8348C270.071 6.02206 277.421 7.77034 255.346 8.11876C251.48 8.17977 248.129 8.28885 245.648 8.4222C246.125 8.71234 246.647 8.97735 247.192 9.1975C250.032 10.3444 250.78 10.6923 249.906 11.6524C250.53 11.6675 251.173 11.6543 251.804 11.6089C254.362 11.4246 256.95 12.0016 257.555 12.8912C258.16 13.7808 260.499 14.3624 262.753 14.1838C265.703 13.95 271.363 14.7043 275.103 15.6369C275.591 15.7278 275.968 15.8296 276.236 15.9426C277.383 16.2796 278.234 16.6278 278.588 16.9524C278.674 17.0314 278.751 17.1071 278.817 17.1797C279.925 17.4733 281.238 17.632 282.444 17.5795C285.849 17.4312 286.437 17.8805 285.928 20.2409C285.461 22.4063 286.007 23.0506 288.227 22.954C289.828 22.8843 290.74 23.2611 290.254 23.7913C290.114 23.9438 290.046 24.1588 290.041 24.4125C295.593 24.5497 299.224 24.8998 298.907 25.4877C298.552 26.1453 295.474 27.2271 291.926 27.9624C291.969 28.2182 291.831 28.3405 291.496 28.2719C290.27 28.0202 286.719 29.7033 284.515 31.2572C284.453 31.8268 283.747 32.5796 282.687 33.2885C282.787 33.8548 283.868 33.9488 285.153 33.4869C286.97 32.8343 286.893 33.0819 284.845 34.4747C284.393 34.7817 283.924 35.1502 283.473 35.5444C284.948 35.4291 286.77 35.265 288.974 35.054C296.289 34.3529 300.837 34.1965 299.079 34.7065C296.71 35.3939 296.287 36.065 297.443 37.3016C298.64 38.5829 297.159 39.4316 291.052 40.9623C282.461 43.1157 277.047 45.2714 276.361 46.7018C277.945 47.1527 279.095 47.8285 279.124 48.5084C279.13 48.6346 278.658 48.769 277.799 48.9042C277.782 50.6069 273.304 52.7583 266.488 54.0429C262.094 54.871 259.452 55.5949 260.617 55.6512C262.351 55.7353 262.315 56.0329 260.419 57.2927C259.146 58.1389 254.27 58.7384 249.585 58.625C244.499 58.5016 241.099 58.9703 241.147 59.7881C241.247 61.4872 218.725 62.8329 200.457 62.2197C173.799 61.325 167.157 61.3541 171.599 62.3464C175.12 63.1329 174.428 63.3598 167.695 63.6261C163.194 63.804 159.207 63.5163 158.835 62.9869C158.512 62.5278 157.227 62.1874 154.878 61.9646C151.619 62.5806 149.486 63.1169 149.188 63.4413C148.805 63.8597 146.911 64.2714 144.98 64.3554C140.559 64.5479 141.665 63.2012 146.901 62.0146C147.395 61.9028 147.877 61.7857 148.33 61.6689C141.312 61.5635 130.605 61.8382 115.622 62.4862C98.9045 63.2091 89.7366 63.2086 86.9161 62.4696ZM271.799 24.5435C276.022 24.4132 280.216 24.3456 283.999 24.3453C284.166 23.2862 283.526 22.5192 282.571 22.6377C281.608 22.7569 277.193 23.1268 272.758 23.4592C270.823 23.6043 269.371 23.7397 268.343 23.888C269.881 23.9406 271.15 24.1855 271.799 24.5435ZM25.8993 23.9406C25.8844 23.6001 26.4873 22.9035 27.2389 22.3927C27.9905 21.8818 28.6346 22.1329 28.6702 22.9506C28.7058 23.7683 28.103 24.4649 27.3306 24.4985C26.5582 24.5321 25.9141 24.2811 25.8993 23.9406ZM231.107 2.9671C230.596 2.21573 230.847 1.57184 231.665 1.53623C232.483 1.50061 233.18 2.10323 233.213 2.87538C233.247 3.64754 232.996 4.29143 232.655 4.30626C232.315 4.32109 231.618 3.71847 231.107 2.9671ZM190.688 3.67894C197.821 3.11307 209.512 2.60406 216.667 2.5478C223.823 2.49155 217.986 2.95452 203.698 3.57664C189.409 4.19876 183.554 4.24479 190.688 3.67894ZM254.897 13.9702C254.882 13.6297 254.221 12.9881 253.428 12.5446C252.635 12.101 252.015 12.4071 252.051 13.2248C252.086 14.0425 252.747 14.684 253.52 14.6504C254.292 14.6168 254.912 14.3107 254.897 13.9702ZM48.643 10.9114C49.0868 10.1185 48.7807 9.49888 47.9626 9.5345C47.1446 9.57011 46.5029 10.231 46.5365 11.0032C46.5702 11.7753 46.8763 12.3949 47.217 12.3801C47.5575 12.3653 48.1993 11.7044 48.643 10.9114ZM88.9712 8.10759C81.8157 8.16385 70.1249 8.67286 62.9916 9.23873C55.8583 9.8046 61.7128 9.75855 76.0016 9.13643C90.2904 8.51431 96.1267 8.05132 88.9712 8.10759ZM49.7026 61.5286C47.9502 61.2696 45.1065 61.3934 43.3832 61.8037C41.66 62.214 43.0937 62.4259 46.5694 62.2745C50.045 62.1232 51.455 61.7875 49.7026 61.5286Z" fill="#EA285F"/>
</svg>
